Coordinates
version=1
nRows=16
nColumns=24
inDegrees=yes

Units are S.I. units (second, meters, Newtons, ...)
If the header above contains a line with 'inDegrees', this indicates whether rotational values are in degrees (yes) or radians (no).

endheader
time	pelvis_tilt	pelvis_list	pelvis_rotation	pelvis_tx	pelvis_ty	pelvis_tz	hip_flexion_r	hip_adduction_r	hip_rotation_r	knee_angle_r	ankle_angle_r	subtalar_angle_r	mtp_angle_r	hip_flexion_l	hip_adduction_l	hip_rotation_l	knee_angle_l	ankle_angle_l	subtalar_angle_l	mtp_angle_l	lumbar_extension	lumbar_bending	lumbar_rotation
4.475000	10.307463	1.739942	-178.630422	0.317547	0.524464	-1.222587	77.553013	-29.707664	-9.586741	-110.219758	39.416739	7.815250	0.000000	81.712231	-33.320044	-1.455215	-108.274269	38.542717	21.367569	0.000000	-11.287383	1.911538	3.657185
4.480000	10.377986	1.731595	-178.637726	0.317637	0.527691	-1.222569	77.183581	-29.632768	-9.806422	-109.596669	39.197689	7.822291	0.000000	81.294722	-33.255782	-1.762706	-107.686164	38.323295	21.310434	0.000000	-11.189687	1.902815	3.658289
4.485000	10.458083	1.732579	-178.653078	0.317594	0.531156	-1.222535	76.790907	-29.557917	-10.054377	-108.947678	38.963851	7.830631	0.000000	80.846114	-33.200161	-2.084002	-107.063532	38.116386	21.245783	0.000000	-11.068300	1.899712	3.689634
4.490000	10.500419	1.729890	-178.665184	0.317650	0.534582	-1.222484	76.389950	-29.468911	-10.289439	-108.316567	38.731675	7.746296	0.000000	80.391507	-33.135638	-2.382449	-106.448184	37.883451	21.132336	0.000000	-11.003054	1.906436	3.663540
4.495000	10.556513	1.734597	-178.691332	0.317635	0.538134	-1.222508	75.978972	-29.362080	-10.543737	-107.659889	38.470164	7.695482	0.000000	79.923157	-33.090151	-2.692133	-105.792166	37.653704	21.035070	0.000000	-10.917106	1.896659	3.672994
4.500000	10.648832	1.740734	-178.686075	0.317676	0.541705	-1.222492	75.579099	-29.276652	-10.798042	-106.963437	38.198304	7.717024	0.000000	79.498457	-32.998347	-2.983562	-105.128483	37.402590	21.021864	0.000000	-10.797480	1.895257	3.676056
4.505000	10.669493	1.726872	-178.670374	0.317664	0.545437	-1.222538	75.089818	-29.181493	-11.036576	-106.257651	37.941033	7.696544	0.000000	78.933622	-32.905817	-3.367572	-104.381472	37.156827	20.853811	0.000000	-10.754412	1.872414	3.607301
4.510000	10.698490	1.698753	-178.671272	0.317620	0.549191	-1.222573	74.624780	-29.098367	-11.263366	-105.550558	37.676678	7.709706	0.000000	78.397539	-32.833696	-3.707810	-103.723359	36.910193	20.828159	0.000000	-10.699925	1.825150	3.579008
4.515000	10.795290	1.715088	-178.699217	0.317516	0.552997	-1.222529	74.201170	-28.959144	-11.523713	-104.814273	37.413698	7.646457	0.000000	77.933709	-32.762479	-4.013449	-103.076398	36.554848	20.697299	0.000000	-10.550327	1.839046	3.598267
4.520000	10.847907	1.672244	-178.706547	0.317455	0.556844	-1.222380	73.769914	-28.883117	-11.728915	-104.084117	37.142882	7.569468	0.000000	77.521985	-32.607534	-4.006295	-102.109791	35.926967	21.130610	0.000000	-10.461973	1.796417	3.606810
4.525000	10.884186	1.673202	-178.720983	0.317438	0.560657	-1.222415	73.300683	-28.757614	-11.979027	-103.355410	36.867920	7.530361	0.000000	76.988562	-32.519864	-4.358767	-101.397162	35.579837	20.915208	0.000000	-10.393846	1.802182	3.547766
4.530000	10.932733	1.652564	-178.713093	0.317311	0.564675	-1.222437	72.810173	-28.654105	-12.223133	-102.589041	36.561737	7.490924	0.000000	76.431472	-32.406509	-4.646968	-100.665902	35.289391	20.978862	0.000000	-10.294394	1.771315	3.531402
4.535000	10.945918	1.633134	-178.681028	0.317260	0.568682	-1.222441	72.290499	-28.572139	-12.468524	-101.828702	36.266352	7.474375	0.000000	75.847023	-32.265633	-5.033729	-99.877144	35.016519	20.801130	0.000000	-10.256104	1.733270	3.479345
4.540000	10.997640	1.659265	-178.677009	0.317101	0.572749	-1.222501	71.768064	-28.429982	-12.762419	-101.035960	35.961058	7.442729	0.000000	75.241044	-32.177695	-5.557158	-99.106129	34.839678	20.338064	0.000000	-10.154803	1.748005	3.467777
4.545000	11.049528	1.653178	-178.681120	0.316922	0.576848	-1.222507	71.269589	-28.306088	-13.019145	-100.242664	35.651162	7.432440	0.000000	74.675960	-32.080421	-5.910327	-98.313909	34.526436	20.255332	0.000000	-10.053913	1.729619	3.460180
4.550000	11.064391	1.628498	-178.661295	0.316680	0.581024	-1.222403	70.728588	-28.233257	-13.276607	-99.448833	35.356968	7.413391	0.000000	74.134205	-31.937846	-6.090773	-97.534281	34.054108	20.399177	0.000000	-9.983735	1.704333	3.417471
